# xmcd
#
# Track frame offsets: 
#        150
#        15041
#        28251
#        42317
#        61504
#        78572
#        80164
#        94849
#        109392
#        130690
#        151210
#
# Disc length: 2246 seconds
#
# Revision: 0
# Processed by: cddbd v1.5.2PL0 Copyright (c) Steve Scherf et al.
# Submitted via: ExactAudioCopy v0.95b4
#
DISCID=7e08c40b
DTITLE=Spur 503 - I´m Ready
DYEAR=2005
DGENRE=Country
TTITLE0=That's What's Wrong With Me
TTITLE1=It Might Be the Whiskey
TTITLE2=Back to Austin 
TTITLE3=Into You 
TTITLE4=I'm Gonna Feel That in the Morning 
TTITLE5=Intro to Cowboy Blues
TTITLE6=Cowboy Blues
TTITLE7=I Don't Know Where I'm At 
TTITLE8=The Mama Song
TTITLE9=Waiting on You
TTITLE10=I'm Ready
EXTD=
EXTT0=
EXTT1=
EXTT2=
EXTT3=
EXTT4=
EXTT5=
EXTT6=
EXTT7=
EXTT8=
EXTT9=
EXTT10=
PLAYORDER=
